<?xml version="1.0" standalone="no"?><svg xmlns:xlink="http://www.w3.org/1999/xlink" xmlns="http://www.w3.org/2000/svg" viewBox="0 0 1000 562.5041915364495" preserveAspectRatio="xMaxYMax slice"><g transform="scale(0.8383072899201931)"><rect x="0" y="0" width="1192.888888888889" height="671" fill="#ffffff"/><circle cx="37.275" cy="37.275" r="7.455" fill="#a0b0f3"/><circle cx="111.835" cy="37.275" r="7.455" fill="#879bef"/><circle cx="186.38500000000002" cy="37.275" r="7.455" fill="#c3cdf7"/><circle cx="260.945" cy="37.275" r="7.455" fill="#92a4f1"/><circle cx="335.495" cy="37.275" r="7.455" fill="#92a4f1"/><circle cx="410.055" cy="37.275" r="7.455" fill="#617cea"/><circle cx="484.615" cy="37.275" r="7.455" fill="#4665e7"/><circle cx="559.1650000000001" cy="37.275" r="7.455" fill="#3e5fe6"/><circle cx="633.725" cy="37.275" r="7.455" fill="#9dadf2"/><circle cx="708.2750000000001" cy="37.275" r="7.455" fill="#8ea1f0"/><circle cx="782.835" cy="37.275" r="7.455" fill="#d8defa"/><circle cx="857.385" cy="37.275" r="7.455" fill="#6e86ec"/><circle cx="931.945" cy="37.275" r="7.455" fill="#758ded"/><circle cx="1006.495" cy="37.275" r="7.455" fill="#a2b2f3"/><circle cx="1081.0549999999998" cy="37.275" r="7.455" fill="#bcc7f6"/><circle cx="1155.615" cy="37.275" r="7.455" fill="#f0f2fd"/><circle cx="37.275" cy="111.835" r="7.455" fill="#506ee8"/><circle cx="111.835" cy="111.835" r="7.455" fill="#8da0f0"/><circle cx="186.38500000000002" cy="111.835" r="7.455" fill="#acbaf4"/><circle cx="260.945" cy="111.835" r="7.455" fill="#9daef2"/><circle cx="335.495" cy="111.835" r="7.455" fill="#c0cbf7"/><circle cx="410.055" cy="111.835" r="7.455" fill="#284ce3"/><circle cx="484.615" cy="111.835" r="7.455" fill="#4d6be8"/><circle cx="559.1650000000001" cy="111.835" r="7.455" fill="#b8c4f6"/><circle cx="633.725" cy="111.835" r="7.455" fill="#2247e2"/><circle cx="708.2750000000001" cy="111.835" r="7.455" fill="#abb9f4"/><circle cx="782.835" cy="111.835" r="7.455" fill="#3053e4"/><circle cx="857.385" cy="111.835" r="7.455" fill="#6c85ec"/><circle cx="931.945" cy="111.835" r="7.455" fill="#bfcaf7"/><circle cx="1006.495" cy="111.835" r="7.455" fill="#afbdf5"/><circle cx="1081.0549999999998" cy="111.835" r="7.455" fill="#617ceb"/><circle cx="1155.615" cy="111.835" r="7.455" fill="#778eed"/><circle cx="37.275" cy="186.38500000000002" r="7.455" fill="#8499ef"/><circle cx="111.835" cy="186.38500000000002" r="7.455" fill="#4665e7"/><circle cx="186.38500000000002" cy="186.38500000000002" r="7.455" fill="#889cf0"/><circle cx="260.945" cy="186.38500000000002" r="7.455" fill="#8a9ef0"/><circle cx="335.495" cy="186.38500000000002" r="7.455" fill="#2c4fe4"/><circle cx="410.055" cy="186.38500000000002" r="7.455" fill="#aebcf5"/><circle cx="484.615" cy="186.38500000000002" r="7.455" fill="#94a6f1"/><circle cx="559.1650000000001" cy="186.38500000000002" r="7.455" fill="#1d43e2"/><circle cx="633.725" cy="186.38500000000002" r="7.455" fill="#ccd4f8"/><circle cx="708.2750000000001" cy="186.38500000000002" r="7.455" fill="#4867e7"/><circle cx="782.835" cy="186.38500000000002" r="7.455" fill="#edf0fd"/><circle cx="857.385" cy="186.38500000000002" r="7.455" fill="#617bea"/><circle cx="931.945" cy="186.38500000000002" r="7.455" fill="#3456e5"/><circle cx="1006.495" cy="186.38500000000002" r="7.455" fill="#c7d1f8"/><circle cx="1081.0549999999998" cy="186.38500000000002" r="7.455" fill="#4362e7"/><circle cx="1155.615" cy="186.38500000000002" r="7.455" fill="#3859e5"/><circle cx="37.275" cy="260.945" r="7.455" fill="#97a9f1"/><circle cx="111.835" cy="260.945" r="7.455" fill="#c5cff7"/><circle cx="186.38500000000002" cy="260.945" r="7.455" fill="#a5b5f3"/><circle cx="260.945" cy="260.945" r="7.455" fill="#c7d1f8"/><circle cx="335.495" cy="260.945" r="7.455" fill="#2b4fe4"/><circle cx="410.055" cy="260.945" r="7.455" fill="#7088ec"/><circle cx="484.615" cy="260.945" r="7.455" fill="#294de3"/><circle cx="559.1650000000001" cy="260.945" r="7.455" fill="#3c5de6"/><circle cx="633.725" cy="260.945" r="7.455" fill="#5f7aea"/><circle cx="708.2750000000001" cy="260.945" r="7.455" fill="#dae0fa"/><circle cx="782.835" cy="260.945" r="7.455" fill="#b4c1f5"/><circle cx="857.385" cy="260.945" r="7.455" fill="#dae0fa"/><circle cx="931.945" cy="260.945" r="7.455" fill="#617ceb"/><circle cx="1006.495" cy="260.945" r="7.455" fill="#8ea1f0"/><circle cx="1081.0549999999998" cy="260.945" r="7.455" fill="#a7b6f4"/><circle cx="1155.615" cy="260.945" r="7.455" fill="#bec9f7"/><circle cx="37.275" cy="335.495" r="7.455" fill="#4766e7"/><circle cx="111.835" cy="335.495" r="7.455" fill="#294de3"/><circle cx="186.38500000000002" cy="335.495" r="7.455" fill="#d5dcfa"/><circle cx="260.945" cy="335.495" r="7.455" fill="#3557e5"/><circle cx="335.495" cy="335.495" r="7.455" fill="#b0bdf5"/><circle cx="410.055" cy="335.495" r="7.455" fill="#a0b0f3"/><circle cx="484.615" cy="335.495" r="7.455" fill="#1b41e1"/><circle cx="559.1650000000001" cy="335.495" r="7.455" fill="#4665e7"/><circle cx="633.725" cy="335.495" r="7.455" fill="#899df0"/><circle cx="708.2750000000001" cy="335.495" r="7.455" fill="#8297ef"/><circle cx="782.835" cy="335.495" r="7.455" fill="#8ca0f0"/><circle cx="857.385" cy="335.495" r="7.455" fill="#395ae5"/><circle cx="931.945" cy="335.495" r="7.455" fill="#6b84ec"/><circle cx="1006.495" cy="335.495" r="7.455" fill="#f0f2fd"/><circle cx="1081.0549999999998" cy="335.495" r="7.455" fill="#6e86ec"/><circle cx="1155.615" cy="335.495" r="7.455" fill="#264be3"/><circle cx="37.275" cy="410.055" r="7.455" fill="#8ea1f0"/><circle cx="111.835" cy="410.055" r="7.455" fill="#d3dbf9"/><circle cx="186.38500000000002" cy="410.055" r="7.455" fill="#5f7aea"/><circle cx="260.945" cy="410.055" r="7.455" fill="#adbbf4"/><circle cx="335.495" cy="410.055" r="7.455" fill="#8096ef"/><circle cx="410.055" cy="410.055" r="7.455" fill="#f5f7fe"/><circle cx="484.615" cy="410.055" r="7.455" fill="#fcfdff"/><circle cx="559.1650000000001" cy="410.055" r="7.455" fill="#7189ed"/><circle cx="633.725" cy="410.055" r="7.455" fill="#1c42e2"/><circle cx="708.2750000000001" cy="410.055" r="7.455" fill="#4f6de8"/><circle cx="782.835" cy="410.055" r="7.455" fill="#91a3f1"/><circle cx="857.385" cy="410.055" r="7.455" fill="#5a76ea"/><circle cx="931.945" cy="410.055" r="7.455" fill="#1c43e2"/><circle cx="1006.495" cy="410.055" r="7.455" fill="#dce2fa"/><circle cx="1081.0549999999998" cy="410.055" r="7.455" fill="#627ceb"/><circle cx="1155.615" cy="410.055" r="7.455" fill="#4061e6"/><circle cx="37.275" cy="484.615" r="7.455" fill="#b8c4f6"/><circle cx="111.835" cy="484.615" r="7.455" fill="#cad3f8"/><circle cx="186.38500000000002" cy="484.615" r="7.455" fill="#94a6f1"/><circle cx="260.945" cy="484.615" r="7.455" fill="#7c92ee"/><circle cx="335.495" cy="484.615" r="7.455" fill="#526fe9"/><circle cx="410.055" cy="484.615" r="7.455" fill="#acbaf4"/><circle cx="484.615" cy="484.615" r="7.455" fill="#748ced"/><circle cx="559.1650000000001" cy="484.615" r="7.455" fill="#8da1f0"/><circle cx="633.725" cy="484.615" r="7.455" fill="#4a69e8"/><circle cx="708.2750000000001" cy="484.615" r="7.455" fill="#6e87ec"/><circle cx="782.835" cy="484.615" r="7.455" fill="#b3c0f5"/><circle cx="857.385" cy="484.615" r="7.455" fill="#e8ecfc"/><circle cx="931.945" cy="484.615" r="7.455" fill="#1c42e1"/><circle cx="1006.495" cy="484.615" r="7.455" fill="#7b91ee"/><circle cx="1081.0549999999998" cy="484.615" r="7.455" fill="#607bea"/><circle cx="1155.615" cy="484.615" r="7.455" fill="#3456e5"/><circle cx="37.275" cy="559.1650000000001" r="7.455" fill="#8ea1f0"/><circle cx="111.835" cy="559.1650000000001" r="7.455" fill="#647eeb"/><circle cx="186.38500000000002" cy="559.1650000000001" r="7.455" fill="#4c6ae8"/><circle cx="260.945" cy="559.1650000000001" r="7.455" fill="#9cadf2"/><circle cx="335.495" cy="559.1650000000001" r="7.455" fill="#d1d9f9"/><circle cx="410.055" cy="559.1650000000001" r="7.455" fill="#4867e7"/><circle cx="484.615" cy="559.1650000000001" r="7.455" fill="#5e79ea"/><circle cx="559.1650000000001" cy="559.1650000000001" r="7.455" fill="#a0b0f3"/><circle cx="633.725" cy="559.1650000000001" r="7.455" fill="#e4e8fb"/><circle cx="708.2750000000001" cy="559.1650000000001" r="7.455" fill="#a8b7f4"/><circle cx="782.835" cy="559.1650000000001" r="7.455" fill="#f0f3fd"/><circle cx="857.385" cy="559.1650000000001" r="7.455" fill="#c0caf7"/><circle cx="931.945" cy="559.1650000000001" r="7.455" fill="#7d93ee"/><circle cx="1006.495" cy="559.1650000000001" r="7.455" fill="#dee4fb"/><circle cx="1081.0549999999998" cy="559.1650000000001" r="7.455" fill="#c7d1f8"/><circle cx="1155.615" cy="559.1650000000001" r="7.455" fill="#6982ec"/><circle cx="37.275" cy="633.725" r="7.455" fill="#c0cbf7"/><circle cx="111.835" cy="633.725" r="7.455" fill="#4464e7"/><circle cx="186.38500000000002" cy="633.725" r="7.455" fill="#8da0f0"/><circle cx="260.945" cy="633.725" r="7.455" fill="#b6c2f6"/><circle cx="335.495" cy="633.725" r="7.455" fill="#4060e6"/><circle cx="410.055" cy="633.725" r="7.455" fill="#4f6de8"/><circle cx="484.615" cy="633.725" r="7.455" fill="#264be3"/><circle cx="559.1650000000001" cy="633.725" r="7.455" fill="#dee4fb"/><circle cx="633.725" cy="633.725" r="7.455" fill="#6f87ec"/><circle cx="708.2750000000001" cy="633.725" r="7.455" fill="#7f94ee"/><circle cx="782.835" cy="633.725" r="7.455" fill="#f9fafe"/><circle cx="857.385" cy="633.725" r="7.455" fill="#4565e7"/><circle cx="931.945" cy="633.725" r="7.455" fill="#7a90ee"/><circle cx="1006.495" cy="633.725" r="7.455" fill="#adbbf4"/><circle cx="1081.0549999999998" cy="633.725" r="7.455" fill="#7b92ee"/><circle cx="1155.615" cy="633.725" r="7.455" fill="#8499ef"/></g></svg>